<?xml version="1.0" standalone="no"?>
<!DOCTYPE svg PUBLIC "-//W3C//DTD SVG 20010904//EN"
 "http://www.w3.org/TR/2001/REC-SVG-20010904/DTD/svg10.dtd">
<svg version="1.0" xmlns="http://www.w3.org/2000/svg"
 width="700.000000pt" height="700.000000pt" viewBox="0 0 700.000000 700.000000"
 preserveAspectRatio="xMidYMid meet">
<metadata>
Created by potrace 1.14, written by Peter Selinger 2001-2017
</metadata>
<g transform="translate(0.000000,700.000000) scale(0.100000,-0.100000)"
fill="#000000" stroke="none">
<path d="M3278 6995 c-1 -1 -42 -5 -89 -9 -47 -4 -95 -8 -105 -10 -10 -2 -41
-7 -69 -10 -335 -44 -715 -158 -1030 -312 -180 -87 -448 -247 -555 -331 -8 -6
-51 -40 -95 -74 -340 -264 -650 -624 -875 -1014 -47 -81 -170 -327 -170 -339
0 -3 -11 -29 -24 -58 -43 -96 -112 -298 -142 -413 -4 -16 -8 -34 -10 -40 -5
-16 -25 -98 -30 -120 -48 -237 -54 -277 -71 -465 -15 -165 -8 -592 12 -711 2
-13 6 -46 9 -74 9 -78 22 -152 51 -285 21 -96 91 -339 114 -395 5 -11 30 -75
55 -142 54 -140 181 -394 249 -501 26 -40 47 -75 47 -78 0 -2 4 -10 10 -17 5
-7 46 -64 91 -126 416 -590 1033 -1051 1718 -1283 199 -67 449 -127 640 -154
25 -3 57 -8 71 -10 162 -25 683 -25 841 1 13 2 47 7 74 10 71 10 87 13 115 18
14 3 43 8 65 12 324 59 744 213 1039 384 49 28 93 51 97 51 5 0 9 5 9 10 0 6
5 10 10 10 15 0 220 141 330 227 152 118 324 280 450 422 36 41 70 79 76 85 6
6 48 61 94 121 150 197 277 405 383 628 26 53 47 99 47 102 0 2 11 28 24 57
57 127 151 421 182 573 17 81 54 301 59 350 4 33 9 71 11 85 9 47 11 525 4
605 -15 157 -21 210 -25 225 -2 8 -7 35 -10 60 -17 129 -80 384 -136 552 -348
1036 -1168 1857 -2204 2206 -168 57 -420 119 -555 137 -19 3 -46 7 -60 10 -13
2 -52 7 -86 11 -33 3 -74 8 -90 10 -33 5 -540 14 -546 9z"/>
</g>
</svg>
